<mxfile host="drawio-plugin" modified="2021-11-02T03:03:07.966Z" agent="5.0 (Macintosh; Intel Mac OS X 12_0_1) AppleWebKit/537.36 (KHTML, like Gecko) Chrome/89.0.4389.114 Safari/537.36" version="14.7.4" etag="7mTC1HLgjQFVgqHSzaJr" type="embed"><diagram id="CwMGx7wq4VPLyRdm4BF5" name="Page-1"><mxGraphModel dx="715" dy="702" grid="1" gridSize="10" guides="1" tooltips="1" connect="1" arrows="1" fold="1" page="1" pageScale="1" pageWidth="850" pageHeight="1100" math="0" shadow="0"><root><mxCell id="0"/><mxCell id="1" parent="0"/><mxCell id="2" value="" style="rounded=1;whiteSpace=wrap;html=1;" vertex="1" parent="1"><mxGeometry x="960" y="80" width="540" height="490" as="geometry"/></mxCell><mxCell id="3" value="" style="rounded=1;whiteSpace=wrap;html=1;" vertex="1" parent="1"><mxGeometry x="80" y="40" width="640" height="650" as="geometry"/></mxCell><mxCell id="4" style="edgeStyle=orthogonalEdgeStyle;rounded=0;orthogonalLoop=1;jettySize=auto;html=1;entryX=0;entryY=0.5;entryDx=0;entryDy=0;entryPerimeter=0;" edge="1" parent="1" source="10" target="16"><mxGeometry relative="1" as="geometry"/></mxCell><mxCell id="5" value="1. 放入" style="edgeLabel;html=1;align=center;verticalAlign=middle;resizable=0;points=[];" vertex="1" connectable="0" parent="4"><mxGeometry x="-0.0071" y="1" relative="1" as="geometry"><mxPoint as="offset"/></mxGeometry></mxCell><mxCell id="6" style="edgeStyle=orthogonalEdgeStyle;rounded=0;orthogonalLoop=1;jettySize=auto;html=1;entryX=0;entryY=0.5;entryDx=0;entryDy=0;entryPerimeter=0;exitX=0.5;exitY=1;exitDx=0;exitDy=0;" edge="1" parent="1" source="10" target="19"><mxGeometry relative="1" as="geometry"/></mxCell><mxCell id="7" value="4. 取数据" style="edgeLabel;html=1;align=center;verticalAlign=middle;resizable=0;points=[];" vertex="1" connectable="0" parent="6"><mxGeometry x="0.5046" y="1" relative="1" as="geometry"><mxPoint as="offset"/></mxGeometry></mxCell><mxCell id="8" style="edgeStyle=orthogonalEdgeStyle;rounded=0;orthogonalLoop=1;jettySize=auto;html=1;exitX=0.25;exitY=0;exitDx=0;exitDy=0;" edge="1" parent="1" source="10"><mxGeometry relative="1" as="geometry"><mxPoint x="170" y="140" as="targetPoint"/><Array as="points"><mxPoint x="170" y="310"/></Array></mxGeometry></mxCell><mxCell id="9" value="5. 返回用户" style="edgeLabel;html=1;align=center;verticalAlign=middle;resizable=0;points=[];" vertex="1" connectable="0" parent="8"><mxGeometry x="0.3771" y="2" relative="1" as="geometry"><mxPoint as="offset"/></mxGeometry></mxCell><mxCell id="10" value="主线程" style="rounded=1;whiteSpace=wrap;html=1;" vertex="1" parent="1"><mxGeometry x="160" y="310" width="120" height="60" as="geometry"/></mxCell><mxCell id="11" style="edgeStyle=orthogonalEdgeStyle;rounded=0;orthogonalLoop=1;jettySize=auto;html=1;entryX=1;entryY=0.5;entryDx=0;entryDy=0;entryPerimeter=0;" edge="1" parent="1" source="15" target="16"><mxGeometry relative="1" as="geometry"/></mxCell><mxCell id="12" value="2. 取数据" style="edgeLabel;html=1;align=center;verticalAlign=middle;resizable=0;points=[];" vertex="1" connectable="0" parent="11"><mxGeometry x="-0.0771" relative="1" as="geometry"><mxPoint as="offset"/></mxGeometry></mxCell><mxCell id="13" style="edgeStyle=orthogonalEdgeStyle;rounded=0;orthogonalLoop=1;jettySize=auto;html=1;entryX=1;entryY=0.5;entryDx=0;entryDy=0;entryPerimeter=0;exitX=0.5;exitY=1;exitDx=0;exitDy=0;" edge="1" parent="1" source="15" target="19"><mxGeometry relative="1" as="geometry"/></mxCell><mxCell id="14" value="3. redis异步处理完之后放入out队列" style="edgeLabel;html=1;align=center;verticalAlign=middle;resizable=0;points=[];" vertex="1" connectable="0" parent="13"><mxGeometry x="-0.5644" relative="1" as="geometry"><mxPoint as="offset"/></mxGeometry></mxCell><mxCell id="15" value="redis线程" style="rounded=1;whiteSpace=wrap;html=1;" vertex="1" parent="1"><mxGeometry x="530" y="310" width="120" height="60" as="geometry"/></mxCell><mxCell id="16" value="in 队列" style="shape=cylinder3;whiteSpace=wrap;html=1;boundedLbl=1;backgroundOutline=1;size=15;" vertex="1" parent="1"><mxGeometry x="380" y="250" width="60" height="180" as="geometry"/></mxCell><mxCell id="17" style="edgeStyle=orthogonalEdgeStyle;rounded=0;orthogonalLoop=1;jettySize=auto;html=1;" edge="1" parent="1" source="18" target="10"><mxGeometry relative="1" as="geometry"/></mxCell><mxCell id="18" value="Actor" style="shape=umlActor;verticalLabelPosition=bottom;verticalAlign=top;html=1;outlineConnect=0;" vertex="1" parent="1"><mxGeometry x="205" y="80" width="30" height="60" as="geometry"/></mxCell><mxCell id="19" value="out 队列" style="shape=cylinder3;whiteSpace=wrap;html=1;boundedLbl=1;backgroundOutline=1;size=15;" vertex="1" parent="1"><mxGeometry x="380" y="480" width="60" height="180" as="geometry"/></mxCell><mxCell id="20" style="edgeStyle=orthogonalEdgeStyle;rounded=0;orthogonalLoop=1;jettySize=auto;html=1;entryX=0;entryY=0.5;entryDx=0;entryDy=0;" edge="1" parent="1" source="24" target="27"><mxGeometry relative="1" as="geometry"/></mxCell><mxCell id="21" value="1. 放入redis线程处理" style="edgeLabel;html=1;align=center;verticalAlign=middle;resizable=0;points=[];" vertex="1" connectable="0" parent="20"><mxGeometry x="0.0613" y="-1" relative="1" as="geometry"><mxPoint as="offset"/></mxGeometry></mxCell><mxCell id="22" style="edgeStyle=orthogonalEdgeStyle;rounded=0;orthogonalLoop=1;jettySize=auto;html=1;" edge="1" parent="1" source="24"><mxGeometry relative="1" as="geometry"><mxPoint x="1019.9999999999995" y="190" as="targetPoint"/></mxGeometry></mxCell><mxCell id="23" value="3. 返回给用户" style="edgeLabel;html=1;align=center;verticalAlign=middle;resizable=0;points=[];" vertex="1" connectable="0" parent="22"><mxGeometry x="0.531" relative="1" as="geometry"><mxPoint as="offset"/></mxGeometry></mxCell><mxCell id="24" value="主线程" style="rounded=1;whiteSpace=wrap;html=1;" vertex="1" parent="1"><mxGeometry x="1040" y="440" width="120" height="60" as="geometry"/></mxCell><mxCell id="25" style="edgeStyle=orthogonalEdgeStyle;rounded=0;orthogonalLoop=1;jettySize=auto;html=1;entryX=1;entryY=0.5;entryDx=0;entryDy=0;exitX=0.5;exitY=0;exitDx=0;exitDy=0;" edge="1" parent="1" source="27" target="31"><mxGeometry relative="1" as="geometry"/></mxCell><mxCell id="26" value="2. redis异步处理完之后，通过epoll触发主线程" style="edgeLabel;html=1;align=center;verticalAlign=middle;resizable=0;points=[];" vertex="1" connectable="0" parent="25"><mxGeometry x="0.3157" relative="1" as="geometry"><mxPoint x="16" as="offset"/></mxGeometry></mxCell><mxCell id="27" value="redis线程" style="rounded=1;whiteSpace=wrap;html=1;" vertex="1" parent="1"><mxGeometry x="1350" y="440" width="120" height="60" as="geometry"/></mxCell><mxCell id="28" style="edgeStyle=orthogonalEdgeStyle;rounded=0;orthogonalLoop=1;jettySize=auto;html=1;entryX=0.5;entryY=0;entryDx=0;entryDy=0;" edge="1" parent="1" source="29" target="31"><mxGeometry relative="1" as="geometry"/></mxCell><mxCell id="29" value="Actor" style="shape=umlActor;verticalLabelPosition=bottom;verticalAlign=top;html=1;outlineConnect=0;" vertex="1" parent="1"><mxGeometry x="1085" y="140" width="30" height="60" as="geometry"/></mxCell><mxCell id="30" style="edgeStyle=orthogonalEdgeStyle;rounded=0;orthogonalLoop=1;jettySize=auto;html=1;entryX=0.5;entryY=0;entryDx=0;entryDy=0;" edge="1" parent="1" source="31" target="24"><mxGeometry relative="1" as="geometry"/></mxCell><mxCell id="31" value="epoll" style="ellipse;whiteSpace=wrap;html=1;" vertex="1" parent="1"><mxGeometry x="1060" y="320" width="80" height="60" as="geometry"/></mxCell><mxCell id="32" value="方案一" style="text;html=1;align=center;verticalAlign=middle;resizable=0;points=[];autosize=1;strokeColor=none;" vertex="1" parent="1"><mxGeometry x="375" y="700" width="50" height="20" as="geometry"/></mxCell><mxCell id="33" value="方案二" style="text;html=1;align=center;verticalAlign=middle;resizable=0;points=[];autosize=1;strokeColor=none;" vertex="1" parent="1"><mxGeometry x="1160" y="580" width="50" height="20" as="geometry"/></mxCell><mxCell id="34" value="epoll" style="ellipse;whiteSpace=wrap;html=1;" vertex="1" parent="1"><mxGeometry x="180" y="220" width="80" height="60" as="geometry"/></mxCell></root></mxGraphModel></diagram></mxfile>